<svg width="32" height="32" viewBox="0 0 32 32" fill="none" xmlns="http://www.w3.org/2000/svg">
<path d="M16.0298 5.33C17.5998 3.88 19.6898 3 21.9998 3C26.9698 3 30.9998 7.03 30.9998 12C30.9998 20 20.9998 29 15.9998 31C10.9998 29 0.999756 20 0.999756 12C0.999756 7.03 5.02976 3 9.99976 3C12.3098 3 14.4098 3.88 15.9998 5.3L16.0298 5.33Z" fill="#F28930"/>
<path d="M16 5.30476C14.407 3.87576 12.309 2.99976 10 2.99976C5.029 2.99976 1 7.02976 1 11.9998C1 19.9998 11 28.9998 16 30.9998C21 28.9998 31 19.9998 31 11.9998C31 7.02976 26.971 2.99976 22 2.99976C18.477 2.99976 15.479 5.05076 14 7.99976M27 12.0001C27 9.23806 24.762 7.00006 22 7.00006" stroke="black" stroke-width="2" stroke-linecap="round" stroke-linejoin="round"/>
</svg>
