<svg width="32" height="32" viewBox="0 0 32 32" fill="none" xmlns="http://www.w3.org/2000/svg">
<g clip-path="url(#clip0_49_234)">
<path d="M26.9999 8H29.9999C30.5499 8 30.9999 8.45 30.9999 9V30C30.9999 30.55 30.5499 31 29.9999 31H1.99992C1.65992 31 1.34992 30.82 1.16992 30.56L1.44992 30.55L15.9999 16L23.9999 24V8H26.9999Z" fill="#F28930"/>
<path d="M16 16L1.45 30.55L1.17 30.56C1.06 30.4 1 30.21 1 30V9C1 8.45 1.45 8 2 8H24V24L16 16Z" fill="#FFE6EA"/>
<path d="M27 8H30C30.553 8 31 8.447 31 9V30C31 30.553 30.553 31 30 31H2C1.447 31 1 30.553 1 30V9C1 8.447 1.447 8 2 8H21M4 28L16 16L24 24V1M24 1L20 5M24 1L28 5" stroke="black" stroke-width="2" stroke-linecap="round" stroke-linejoin="round"/>
</g>
<defs>
<clipPath id="clip0_49_234">
<rect width="32" height="32" fill="white"/>
</clipPath>
</defs>
</svg>
